<mxfile host="app.diagrams.net" modified="2023-09-20T16:18:31.899Z" agent="Mozilla/5.0 (Windows NT 10.0; Win64; x64) AppleWebKit/537.36 (KHTML, like Gecko) Chrome/116.0.0.0 Safari/537.36 OPR/102.0.0.0 (Edition std-1)" etag="b_Vbb9yOv4QJsNivBwDJ" version="21.7.5" type="device">
  <diagram name="Page-1" id="5WQHAqjgBacDgkpyDFZz">
    <mxGraphModel dx="663" dy="361" grid="1" gridSize="10" guides="1" tooltips="1" connect="1" arrows="1" fold="1" page="1" pageScale="1" pageWidth="850" pageHeight="1100" math="0" shadow="0">
      <root>
        <mxCell id="0" />
        <mxCell id="1" parent="0" />
        <mxCell id="1Ux2lOgCle1LGEWLoBuL-1" value="Libertarismo" style="whiteSpace=wrap;html=1;shape=mxgraph.basic.pentagon" vertex="1" parent="1">
          <mxGeometry x="320" y="190" width="177.78" height="160" as="geometry" />
        </mxCell>
        <mxCell id="1Ux2lOgCle1LGEWLoBuL-2" value="Impulsiva" style="text;html=1;strokeColor=none;fillColor=none;align=center;verticalAlign=middle;whiteSpace=wrap;rounded=0;" vertex="1" parent="1">
          <mxGeometry x="379" y="160" width="60" height="30" as="geometry" />
        </mxCell>
        <mxCell id="1Ux2lOgCle1LGEWLoBuL-3" value="Não gosta da ideia de comprometimento" style="text;html=1;strokeColor=none;fillColor=none;align=center;verticalAlign=middle;whiteSpace=wrap;rounded=0;" vertex="1" parent="1">
          <mxGeometry x="300" y="360" width="90" height="50" as="geometry" />
        </mxCell>
        <mxCell id="1Ux2lOgCle1LGEWLoBuL-4" value="Cautelosa" style="text;html=1;strokeColor=none;fillColor=none;align=center;verticalAlign=middle;whiteSpace=wrap;rounded=0;" vertex="1" parent="1">
          <mxGeometry x="460" y="360" width="80" height="30" as="geometry" />
        </mxCell>
        <mxCell id="1Ux2lOgCle1LGEWLoBuL-5" value="Aberta às Ações, Gosta de novas experiências com homens" style="text;html=1;strokeColor=none;fillColor=none;align=center;verticalAlign=middle;whiteSpace=wrap;rounded=0;" vertex="1" parent="1">
          <mxGeometry x="200" y="225" width="120" height="40" as="geometry" />
        </mxCell>
        <mxCell id="1Ux2lOgCle1LGEWLoBuL-6" value="Assertiva" style="text;html=1;strokeColor=none;fillColor=none;align=center;verticalAlign=middle;whiteSpace=wrap;rounded=0;" vertex="1" parent="1">
          <mxGeometry x="497.78" y="230" width="80" height="30" as="geometry" />
        </mxCell>
      </root>
    </mxGraphModel>
  </diagram>
</mxfile>
